<svg version="1.1" id="Layer_1" xmlns="http://www.w3.org/2000/svg" xmlns:xlink="http://www.w3.org/1999/xlink" x="0px" y="0px"
	 width="100%" viewBox="0 0 1024 1024" enable-background="new 0 0 1024 1024" xml:space="preserve">
<path fill="#000000" opacity="1.000000" stroke="none" 
	d="
M311.562897,414.636169 
	C347.591644,348.545471 401.339508,305.521606 474.028870,286.534271 
	C497.904816,280.297577 522.187805,277.943878 546.740479,279.817902 
	C601.253662,283.978638 648.880066,304.683929 689.684204,340.929413 
	C720.715942,368.494232 744.504883,401.249878 758.855347,440.436035 
	C766.028442,460.023193 770.601013,480.190979 772.485535,501.056641 
	C776.361633,543.972107 768.551270,584.637878 749.172485,622.917297 
	C727.628418,665.473816 696.840637,699.784424 655.712463,724.491455 
	C628.614685,740.769897 599.831848,752.510803 568.504028,757.577332 
	C517.787048,765.779602 469.360779,758.607178 423.468018,735.459167 
	C372.584686,709.794006 333.889404,671.723267 308.738495,620.455078 
	C296.183014,594.861694 288.604645,567.784363 286.537079,539.140503 
	C283.378448,495.381653 291.766785,454.088440 311.562897,414.636169 
M613.739319,669.535400 
	C617.802979,648.830444 630.289978,634.330200 647.818054,623.688293 
	C693.222412,596.121887 723.563660,557.374390 735.997131,505.286652 
	C737.654053,498.345459 739.700745,491.443481 739.715027,484.224457 
	C739.724915,479.268463 737.028015,475.942688 732.794250,475.223328 
	C728.023987,474.412781 725.291565,476.195892 723.475586,481.382721 
	C722.982300,482.791626 722.641541,484.253967 722.230103,485.691559 
	C714.778625,511.726929 704.472717,536.247314 685.232483,556.108398 
	C682.594177,558.831787 679.737793,561.515442 678.472534,565.290894 
	C675.899292,572.969116 670.721313,578.781189 664.973267,584.182251 
	C654.793640,593.747498 642.208618,599.096863 629.507141,604.148315 
	C617.705200,608.842041 606.069336,613.804443 596.515564,622.449402 
	C577.968079,639.232544 569.012024,660.470581 568.204224,685.219666 
	C567.705139,700.509949 567.705261,715.816833 567.505676,731.116577 
	C567.435303,736.515564 569.293396,738.081970 574.481995,737.238708 
	C585.040527,735.522705 595.107483,732.041748 605.205688,728.690369 
	C609.446411,727.282959 611.743347,724.301758 611.687805,719.683167 
	C611.639832,715.686646 611.604675,711.688416 611.663025,707.692444 
	C611.844971,695.231873 610.910034,682.710205 613.739319,669.535400 
M448.108246,717.221375 
	C447.719269,722.478760 450.054474,726.234009 454.731842,728.361572 
	C464.359131,732.740479 474.667969,734.777954 484.993439,736.624207 
	C489.011444,737.342651 491.683655,735.359497 491.607178,731.202515 
	C491.246521,711.589661 493.348816,691.870544 489.636108,672.393982 
	C484.901367,647.555969 473.385010,627.170044 450.860596,614.054138 
	C440.860382,608.231079 429.785736,604.952332 419.346252,600.180115 
	C402.251617,592.365784 387.351349,582.267395 380.190796,563.773438 
	C379.727783,562.577576 378.854065,561.432251 377.905365,560.549255 
	C363.190948,546.853699 353.657135,529.855713 346.140289,511.477173 
	C342.035858,501.441895 339.462799,490.898102 335.472290,480.849243 
	C333.453644,475.765961 329.723450,474.079346 325.129303,475.472504 
	C321.279846,476.639862 319.137115,480.785706 319.872955,485.536682 
	C321.376709,495.245026 323.758148,504.752655 326.292389,514.231873 
	C334.957428,546.643311 352.359039,573.719238 376.226685,597.002625 
	C387.179565,607.687378 399.853516,615.853027 412.625549,624.047302 
	C430.112885,635.266785 442.709351,650.235718 446.254822,671.446594 
	C448.739136,686.309143 447.707977,701.332947 448.108246,717.221375 
M516.405579,678.814636 
	C511.263000,694.212280 511.360260,709.920288 514.104126,725.655884 
	C516.323669,738.384766 528.362122,737.867859 535.321167,731.460022 
	C541.687439,725.598083 543.882568,718.185181 544.990112,710.176819 
	C546.586365,698.635925 545.864990,686.930298 547.662109,675.365784 
	C553.898376,635.236511 574.569336,606.234863 612.377319,590.130432 
	C620.340210,586.738525 628.342163,583.391113 636.080627,579.531128 
	C646.463989,574.351807 656.302063,568.318054 660.695068,556.651550 
	C662.821594,551.004089 661.331909,546.074890 657.049988,543.394775 
	C653.434998,541.132141 648.089050,541.950562 644.626160,546.569946 
	C634.830505,559.637085 620.914612,566.723938 606.828735,573.615967 
	C561.892761,595.602661 530.926025,629.606079 516.405579,678.814636 
M660.934326,403.516296 
	C657.802429,394.313568 653.528564,385.684052 647.756836,377.850616 
	C646.466553,376.099396 645.243652,373.327118 642.307617,374.762482 
	C639.315247,376.225372 640.192627,378.845154 641.053528,381.299988 
	C643.533875,388.372772 645.674927,395.539856 646.862061,402.959564 
	C650.883667,428.095612 646.592346,451.027557 628.855103,470.333466 
	C619.437927,480.583496 607.522400,487.289520 595.241943,493.322021 
	C582.987427,499.341705 570.625061,505.165405 558.944641,512.240662 
	C525.085388,532.750305 498.785858,560.867432 477.426270,593.893066 
	C470.872437,604.026306 471.300720,605.665161 483.365997,612.469482 
	C483.591888,611.976624 483.868439,611.150085 484.321014,610.434814 
	C485.120544,609.171204 486.095703,608.017578 486.879211,606.745178 
	C510.672974,568.102234 543.720032,539.725830 583.819580,519.093201 
	C596.996887,512.313049 610.767212,506.801208 623.795776,499.679718 
	C640.793701,490.388519 652.506958,476.397614 659.754333,458.945557 
	C667.143860,441.151031 667.118530,422.657471 660.934326,403.516296 
M498.976349,487.556671 
	C513.327759,491.780090 527.980469,493.237488 542.914917,492.798676 
	C548.219788,492.642792 553.103149,491.587433 557.806091,489.252563 
	C563.470215,486.440338 569.216187,483.791199 574.857727,480.935272 
	C586.722900,474.928741 599.288818,470.091705 609.551636,461.320526 
	C621.789307,450.861542 628.273743,437.782532 626.867310,421.330688 
	C626.480225,416.802490 624.618896,412.353027 620.276001,411.796509 
	C616.027283,411.252014 613.828552,415.504517 612.458923,419.486786 
	C608.307922,431.554779 601.226501,441.801300 591.906738,450.347351 
	C562.915833,476.931427 522.379089,481.477356 487.208374,464.507812 
	C466.133850,454.339600 453.070282,436.915955 445.620575,415.017212 
	C444.884613,412.853821 444.302490,410.324738 441.348389,410.100250 
	C438.555023,409.887970 436.678589,411.445221 435.157288,413.619415 
	C432.184021,417.868866 432.052917,422.673706 432.521179,427.527100 
	C434.223602,445.174042 443.080780,458.465179 457.765686,467.961334 
	C470.404053,476.133972 484.121704,482.144348 498.976349,487.556671 
M396.092529,362.644043 
	C400.133331,356.709106 404.843018,351.314056 409.617950,345.977051 
	C411.318695,344.076019 412.295471,342.170502 410.326202,339.392273 
	C402.044067,342.376801 394.783325,347.101837 387.810394,352.586823 
	C376.678375,361.343292 368.897858,372.676727 361.171875,384.301483 
	C354.135193,394.889038 350.938660,406.568634 348.696167,418.705536 
	C345.979706,433.407471 344.665009,448.529724 349.405792,462.685669 
	C354.460815,477.779907 359.281586,493.074493 365.962433,507.608826 
	C368.880127,513.956299 371.994263,520.174988 377.463348,524.944824 
	C384.303925,530.910706 384.181091,531.045837 391.729828,526.487305 
	C392.584198,525.971313 393.428192,525.368774 394.361176,525.064270 
	C398.318115,523.772705 398.023621,521.605164 396.029449,518.661926 
	C387.219696,505.659302 382.195099,491.023895 378.078674,476.048279 
	C371.339783,451.531952 370.203644,426.850586 376.772644,402.111603 
	C380.531982,387.953857 387.241791,375.152924 396.092529,362.644043 
M701.374329,389.138977 
	C693.501892,374.218384 682.501892,361.991241 669.180908,351.764404 
	C665.876282,349.227325 659.808228,348.788818 658.187683,351.322479 
	C656.021973,354.708649 659.358398,356.666901 660.866943,359.042358 
	C661.222168,359.601654 661.687317,360.090179 662.087524,360.622009 
	C678.302002,382.166046 686.656616,406.477753 687.294128,433.375031 
	C687.935608,460.439453 680.523804,485.574097 668.523376,509.578094 
	C666.257690,514.109985 662.863831,518.106201 661.585266,522.879700 
	C662.804688,524.605835 664.441528,524.660522 665.768677,525.290283 
	C676.145691,530.215210 681.920288,528.611755 688.002258,518.546936 
	C690.653137,514.160217 692.569397,509.321442 694.721436,504.642944 
	C700.077515,492.998657 702.863708,480.369080 708.222229,468.753906 
	C711.381287,461.906403 712.019592,454.774292 712.656311,447.507660 
	C713.318176,439.952332 711.147400,432.624512 710.898499,425.244049 
	C710.471741,412.592682 706.724426,401.112885 701.374329,389.138977 
M676.368958,672.884888 
	C684.738525,665.556396 693.151367,658.098450 699.623779,649.117126 
	C703.794189,643.330078 710.180847,640.370422 714.241821,634.532288 
	C721.044739,624.752380 729.476440,616.168091 731.633911,603.633667 
	C732.485229,598.687378 734.584351,593.536926 737.481750,589.447632 
	C743.786499,580.549133 746.666809,570.771912 746.170837,560.203491 
	C745.987305,556.291748 749.284485,550.680969 742.873657,548.252991 
	C741.296021,548.996216 741.152527,550.639771 740.514893,551.945374 
	C733.265198,566.789551 724.880310,580.937378 714.330200,593.691040 
	C698.880188,612.367798 680.203613,627.214600 659.378174,639.469666 
	C653.907410,642.689026 648.788818,646.414001 644.600464,651.230957 
	C639.717163,656.846985 640.333923,670.355896 645.577332,675.300171 
	C649.266418,678.778809 665.360901,680.418701 669.712036,677.664429 
	C671.816345,676.332397 673.768982,674.760864 676.368958,672.884888 
M508.320068,524.866028 
	C512.208679,521.205933 517.034485,518.476440 519.970520,513.827209 
	C518.551270,512.537781 517.212952,512.467346 515.896423,512.239624 
	C491.817291,508.075928 469.320557,499.636139 448.785492,486.413452 
	C420.354401,468.106445 408.632263,441.780762 412.365784,408.336914 
	C414.052551,393.227142 418.973785,379.218872 426.289246,365.952515 
	C427.276794,364.161621 429.171173,362.326050 428.198151,359.809357 
	C426.288391,359.762299 425.609314,361.078278 424.700287,361.966064 
	C410.805969,375.535797 400.942383,391.502808 396.508606,410.520172 
	C392.501099,427.709137 391.971741,444.896942 399.577942,461.303619 
	C408.191071,479.882233 421.977417,493.586395 440.190857,503.095123 
	C458.245148,512.520813 477.094543,519.993713 496.037567,527.331360 
	C500.647186,529.116943 504.359650,528.983643 508.320068,524.866028 
M588.232178,539.791260 
	C563.107727,553.370178 540.160828,569.788818 521.955505,592.056702 
	C512.473328,603.654724 503.445923,615.678406 498.342804,630.049500 
	C496.874908,634.183350 499.492798,640.873840 503.216888,643.025452 
	C506.121063,644.703247 508.404877,644.752075 509.957489,641.098206 
	C511.320465,637.890686 513.004089,634.798523 514.767761,631.785095 
	C536.005005,595.497009 566.196533,569.182068 604.552307,552.368286 
	C620.570496,545.346497 631.378357,533.115723 641.019043,519.362549 
	C642.373291,517.430664 643.743469,515.149475 641.555969,511.918213 
	C624.845093,523.012085 606.325867,530.164734 588.232178,539.791260 
M395.633698,636.918945 
	C362.322601,617.369263 337.684113,589.643005 320.139954,555.405579 
	C318.881073,556.185364 318.359619,556.358398 318.078156,556.718872 
	C317.681305,557.227051 317.224976,557.865295 317.202972,558.463013 
	C316.934204,565.770813 316.180481,573.183594 322.789856,578.674500 
	C324.126221,579.784790 325.188354,581.548645 325.739441,583.221252 
	C327.540161,588.686646 330.745941,593.341431 333.781982,598.108154 
	C335.128418,600.222107 336.278076,602.406982 337.023010,604.826294 
	C338.869415,610.823059 341.860657,615.947632 347.039459,619.897217 
	C350.996307,622.914856 354.177032,626.931519 356.330902,631.491028 
	C362.402313,644.343750 370.994232,655.208923 381.940063,664.187683 
	C386.690033,668.084167 391.702850,671.672607 396.713745,675.235718 
	C403.550049,680.096680 411.354736,680.050842 415.924072,675.312134 
	C422.127625,668.878723 422.572906,661.447327 417.095978,654.105835 
	C411.592163,646.728333 404.001465,641.903870 395.633698,636.918945 
M544.481689,383.638885 
	C559.619690,380.968536 574.757690,378.298187 590.691956,375.487396 
	C588.553955,373.492340 587.047729,373.545135 585.564819,373.323181 
	C572.429504,371.357025 559.310730,369.279755 546.172485,367.334045 
	C541.870056,366.696899 539.524170,364.565399 538.484558,360.177917 
	C536.490723,351.763916 535.018677,343.274689 533.614014,334.755249 
	C532.549683,328.299835 532.056519,321.705780 529.424988,315.427734 
	C528.031738,320.386871 527.115173,325.361145 526.330688,330.356140 
	C524.758118,340.368713 523.178955,350.371887 520.594788,360.195648 
	C519.445435,364.564941 517.133362,366.939301 512.403931,367.491913 
	C503.498169,368.532562 494.619873,369.900604 485.790833,371.473145 
	C479.770203,372.545471 473.543427,372.742554 466.832550,375.058868 
	C468.265778,375.434998 468.731750,375.598389 469.211609,375.677277 
	C483.470062,378.021027 497.722687,380.401978 511.993347,382.669220 
	C517.203125,383.496948 520.393311,386.107941 521.321655,391.488159 
	C522.534912,398.519226 524.010864,405.504700 525.344421,412.515381 
	C526.779480,420.060211 527.326172,427.781830 529.810181,435.193512 
	C530.684692,432.797516 531.246399,430.414459 531.658875,428.005859 
	C533.703857,416.064911 535.615051,404.100037 537.786926,392.182526 
	C538.433228,388.636078 539.171204,384.789673 544.481689,383.638885 
M397.926117,553.801025 
	C400.537170,563.829834 407.433350,570.355469 415.832245,575.623108 
	C425.196411,581.496094 435.591644,585.202332 445.589050,589.751221 
	C454.281036,593.706116 454.229034,593.820190 459.243561,585.931396 
	C459.332977,585.790710 459.421692,585.649658 459.511749,585.509399 
	C463.897339,578.677429 463.792450,578.760742 456.302368,575.401123 
	C440.466919,568.298157 424.519379,561.342651 414.194122,546.190735 
	C411.576599,542.349670 407.474518,541.096008 403.130920,542.873169 
	C398.743896,544.668152 397.213593,548.435486 397.926117,553.801025 
M418.504425,516.450684 
	C423.141144,527.282532 429.818268,536.628174 439.207214,543.803406 
	C448.984955,551.275879 460.970612,554.479004 471.719727,560.092041 
	C472.978699,560.749512 474.440277,560.907471 475.532257,560.025879 
	C480.245941,556.220459 484.718994,552.188538 486.582977,545.759460 
	C462.554779,536.396118 438.965942,527.271606 418.067719,512.445618 
	C417.821350,512.836548 417.574982,513.227478 417.328613,513.618408 
	C417.615479,514.367493 417.902344,515.116516 418.504425,516.450684 
M734.178589,451.223175 
	C733.993042,454.040649 735.255737,455.632996 738.119812,455.812744 
	C739.419128,455.894318 740.307312,455.386749 740.680176,454.016205 
	C741.379578,451.446106 738.353088,445.415527 735.441772,443.809906 
	C733.529724,445.712250 734.495850,448.179474 734.178589,451.223175 
z"/>
<path fill="#000000" opacity="1.000000" stroke="none" 
	d="
M504.664246,214.166901 
	C504.232513,209.238037 503.766418,204.772705 503.397217,200.299393 
	C503.068268,196.313309 504.040680,193.309052 508.907440,193.346771 
	C510.057159,193.355682 511.203766,192.951187 512.361694,192.842636 
	C521.869507,191.951248 522.707520,193.008499 523.433777,202.526276 
	C524.558228,217.262924 526.151306,231.964386 527.604248,246.674973 
	C527.987854,250.558975 529.882690,254.823868 525.703552,257.677551 
	C521.681885,260.423767 512.218567,259.569305 508.748199,256.305664 
	C501.467896,249.458984 494.335815,242.454910 487.106110,235.554001 
	C486.191986,234.681473 485.483521,233.388412 483.465240,233.420135 
	C483.269165,239.076889 484.673401,244.514862 485.681610,249.952530 
	C487.856049,261.679962 483.718323,266.006683 471.786285,264.323395 
	C467.837402,263.766296 467.277618,260.778473 466.786621,257.829315 
	C465.013397,247.178589 463.389282,236.503113 461.673798,225.842621 
	C460.591461,219.116714 459.467255,212.397369 458.322327,205.681793 
	C457.646851,201.719635 459.070618,199.639816 463.138580,198.476471 
	C470.395050,196.401276 476.102844,197.446671 481.325470,203.466324 
	C486.875397,209.863251 493.331757,215.476166 499.425690,221.397095 
	C500.952484,222.880585 502.302277,224.648254 504.917236,225.322189 
	C505.804810,221.671768 504.273315,218.138123 504.664246,214.166901 
z"/>
<path fill="#000000" opacity="1.000000" stroke="none" 
	d="
M545.861816,212.041473 
	C558.898499,189.565994 590.240540,188.923370 606.029114,203.636185 
	C608.854492,206.269104 611.140686,209.244568 612.385864,213.033920 
	C613.459717,216.301971 612.340820,218.079102 609.345581,219.215775 
	C603.165894,221.560867 597.717163,222.644852 592.276550,216.630081 
	C586.550659,210.299988 578.866577,209.869949 571.156433,213.480225 
	C564.569153,216.564728 560.834717,223.109833 561.270996,230.491791 
	C561.737000,238.377075 569.733643,246.055847 578.390564,246.617966 
	C581.833374,246.841522 585.376465,247.254501 588.743103,245.838242 
	C590.280640,245.191437 591.325195,244.059769 591.162415,242.432480 
	C591.001343,240.823334 589.469727,240.600067 588.123718,240.392120 
	C586.973694,240.214432 585.807434,240.094559 584.681885,239.814240 
	C579.375916,238.492706 578.028503,236.439819 578.837280,231.243301 
	C579.536499,226.750931 581.289917,223.689545 586.639343,224.678665 
	C593.822388,226.006882 601.027283,227.217056 608.222107,228.482178 
	C612.234985,229.187790 613.238831,231.562454 612.429810,235.379669 
	C611.191650,241.221802 610.306396,247.137833 609.152405,252.999069 
	C608.728699,255.150742 607.775146,257.114807 605.739868,258.298218 
	C586.925232,269.238037 557.536987,266.752014 545.402283,245.217087 
	C539.230652,234.264572 540.025024,223.268921 545.861816,212.041473 
z"/>
<path fill="#000000" opacity="1.000000" stroke="none" 
	d="
M694.333923,291.356934 
	C702.490051,281.229584 710.499512,271.441071 718.327576,261.509613 
	C721.462219,257.532745 725.175598,257.289642 728.836670,259.866394 
	C738.082214,266.373566 747.583496,272.720459 755.053040,281.301544 
	C766.811646,294.809967 761.306335,314.917053 744.912476,319.684662 
	C742.778198,320.305359 740.624573,320.528809 738.497437,320.304138 
	C734.063660,319.835846 732.948059,322.054474 733.353943,325.934113 
	C733.750854,329.728912 734.201721,333.535095 734.271118,337.342804 
	C734.356140,342.004242 731.789001,343.928192 727.265686,342.974792 
	C719.744385,341.389526 714.817749,335.467987 714.705200,327.696808 
	C714.645020,323.545593 714.612976,319.407715 715.504761,315.277100 
	C716.457642,310.863220 715.361755,307.058411 710.849854,304.579132 
	C707.572693,306.389160 705.687988,309.604431 703.327576,312.314911 
	C697.496704,319.010498 695.942322,319.138519 689.149231,313.224792 
	C688.273926,312.462769 687.467224,311.617920 686.664124,310.777618 
	C683.776489,307.756348 683.762146,304.578003 686.288147,301.363434 
	C688.858948,298.091919 691.502686,294.877747 694.333923,291.356934 
M721.904114,288.296448 
	C720.611938,290.417328 722.080811,291.830505 723.345825,293.076172 
	C726.070190,295.758820 728.933044,298.303070 731.783325,300.854797 
	C734.493408,303.280945 737.250549,303.043152 739.809143,300.653107 
	C742.396423,298.236328 742.409119,295.402069 740.653137,292.512207 
	C739.247986,290.199921 737.170044,288.505463 735.090942,286.824097 
	C728.146606,281.208466 728.151672,281.202179 721.904114,288.296448 
z"/>
<path fill="#000000" opacity="1.000000" stroke="none" 
	d="
M338.968445,263.962036 
	C349.987244,276.921783 360.796600,289.583466 371.480286,302.350403 
	C373.631714,304.921387 376.903656,307.608795 374.375702,311.511444 
	C371.600708,315.795441 367.585938,318.958130 362.573486,320.046417 
	C359.945068,320.617096 358.249146,317.933777 356.572418,316.119781 
	C353.092468,312.354858 350.328064,307.937653 345.867279,304.171356 
	C339.809845,309.421783 333.843903,314.592896 327.729645,319.892609 
	C330.540070,324.752075 334.891846,327.742889 338.033447,331.749634 
	C339.887268,334.113953 343.292206,336.427521 341.067902,339.922241 
	C338.287201,344.291138 334.602264,348.067780 329.196106,349.115112 
	C327.060822,349.528778 325.573364,347.626709 324.230560,346.173859 
	C312.591705,333.580933 300.937927,321.001007 289.408508,308.308228 
	C285.231537,303.709808 285.526428,300.688049 290.057678,296.281891 
	C291.129547,295.239624 292.275269,294.261536 293.460815,293.349915 
	C298.643951,289.364380 300.267395,289.485413 304.832825,294.351959 
	C308.362061,298.113892 311.790649,301.970154 315.284912,305.765198 
	C315.485657,305.983215 315.875153,306.027435 316.488007,306.281555 
	C322.893707,301.536865 328.751678,295.996124 334.591797,289.732086 
	C330.836670,285.165802 327.204315,280.878021 323.717163,276.475189 
	C319.501007,271.151855 319.774567,268.582367 324.775757,264.157593 
	C330.868774,258.766846 333.792999,258.671082 338.968445,263.962036 
z"/>
<path fill="#000000" opacity="1.000000" stroke="none" 
	d="
M713.913940,707.852661 
	C730.893127,711.147095 735.749634,719.493958 732.324219,739.140137 
	C737.797058,740.174072 743.320129,741.037659 748.744080,742.319946 
	C751.352112,742.936523 754.753235,743.258240 755.218933,746.818420 
	C755.677368,750.322205 752.778870,751.970886 750.498291,753.919739 
	C742.941345,760.377075 734.402954,758.865723 725.808105,757.109863 
	C724.346863,756.811401 722.880981,756.467346 721.400635,756.346008 
	C718.506104,756.108582 715.963379,757.363831 714.484924,759.604248 
	C712.947571,761.934021 715.823364,763.342468 716.685181,765.182617 
	C716.960571,765.770630 717.488586,766.239441 717.897034,766.765991 
	C720.095581,769.600037 724.179382,772.157227 722.845703,775.988892 
	C721.169067,780.806152 716.503296,783.556824 712.043762,785.876160 
	C709.833435,787.025696 707.780029,785.926697 706.348816,784.033630 
	C695.097290,769.151184 683.848328,754.266541 672.671692,739.327820 
	C670.577332,736.528503 670.743042,733.620789 673.625732,731.384033 
	C682.440369,724.544128 691.174255,717.578247 700.665344,711.676575 
	C704.545288,709.263977 708.970154,708.310669 713.913940,707.852661 
M711.783081,740.246094 
	C713.561768,738.914368 714.927673,737.244202 715.532349,735.096863 
	C716.833130,730.477844 713.275146,726.080933 708.873535,727.331665 
	C703.668335,728.810791 698.648010,731.895142 696.204529,736.410889 
	C694.271179,739.984131 699.647156,742.479553 701.448730,745.647461 
	C701.579285,745.876953 702.024170,745.927673 702.714844,746.237122 
	C705.414978,744.469238 708.310852,742.573181 711.783081,740.246094 
z"/>
<path fill="#000000" opacity="1.000000" stroke="none" 
	d="
M264.319153,695.638062 
	C277.511475,684.362488 290.434479,673.350891 303.410492,662.402161 
	C306.001099,660.216248 309.011353,657.983704 312.395416,660.299438 
	C316.262604,662.945984 319.598053,666.381592 320.147125,671.387878 
	C320.406799,673.755737 318.378174,675.266357 316.778534,676.676086 
	C313.408112,679.646301 309.951599,682.524475 306.438568,685.325195 
	C304.262939,687.059631 304.112488,688.662170 306.030212,690.705444 
	C310.916931,695.912048 315.718597,701.198608 320.704254,706.616089 
	C324.859741,704.477722 327.500610,701.045532 330.625580,698.160339 
	C333.200836,695.782654 335.479034,691.964783 339.797180,693.536194 
	C344.387482,695.206482 347.426910,698.834045 349.108276,703.393982 
	C350.014984,705.852844 348.827057,707.964233 347.051117,709.676758 
	C334.469238,721.809448 321.894226,733.949463 309.260284,746.027832 
	C306.074249,749.073792 302.784088,749.143921 299.718658,745.696533 
	C298.612366,744.452393 297.445709,743.257202 296.402527,741.962402 
	C292.588562,737.228516 292.710541,734.686401 297.141479,730.346619 
	C299.993439,727.553345 303.038666,724.958557 305.952179,722.226624 
	C307.697571,720.589966 308.676727,718.729553 306.685150,716.613159 
	C301.337067,710.929810 295.951630,705.281555 290.152313,699.167358 
	C286.094818,702.743225 282.128113,705.964661 278.490723,709.522766 
	C274.950287,712.985962 271.738464,712.889648 268.810425,709.128418 
	C265.826660,705.295593 260.355743,702.211914 264.319153,695.638062 
z"/>
<path fill="#000000" opacity="1.000000" stroke="none" 
	d="
M629.940186,277.205322 
	C628.993103,276.775238 628.386475,276.500000 627.792297,276.200378 
	C620.706970,272.627869 619.803833,270.558838 622.976074,263.169586 
	C627.437500,252.777130 632.177246,242.504318 636.773132,232.169266 
	C638.935242,227.307083 640.916321,222.360489 643.203430,217.558853 
	C645.622070,212.481354 648.258606,211.381119 653.222107,213.858582 
	C664.825073,219.649994 676.347717,225.611298 687.773499,231.744751 
	C692.592896,234.331787 692.982178,236.916870 690.229797,242.112961 
	C687.344788,247.559525 684.161133,248.984131 679.448853,246.638199 
	C672.177246,243.018158 664.985168,239.238342 657.851074,235.573380 
	C653.153015,241.437622 653.287720,242.145111 659.390808,245.343857 
	C663.810913,247.660538 668.329407,249.806427 672.638794,252.312653 
	C676.842712,254.757584 677.279297,257.358765 674.768005,261.986847 
	C671.996643,267.094177 669.746155,268.190887 665.299255,266.137756 
	C659.432434,263.429047 653.671936,260.490112 647.955017,257.693848 
	C643.518066,263.362335 643.682983,264.159271 649.557068,267.090363 
	C655.363708,269.987762 661.208557,272.811249 666.967773,275.799866 
	C672.477112,278.658752 673.173645,281.265533 670.302551,287.221924 
	C667.707581,292.605316 664.836365,293.934998 659.486084,291.458862 
	C649.677063,286.919281 640.011658,282.069366 629.940186,277.205322 
z"/>
<path fill="#000000" opacity="1.000000" stroke="none" 
	d="
M640.985413,778.762695 
	C646.084473,776.956848 648.706909,779.160339 650.059448,783.439880 
	C651.855591,789.122864 650.794861,792.018005 645.976257,793.994507 
	C641.671265,795.760254 637.220093,797.166870 632.851135,798.780029 
	C627.030518,800.929260 626.961670,801.158325 630.091187,807.266479 
	C635.610413,806.487793 640.560913,803.648865 645.837097,801.857666 
	C648.827209,800.842529 651.708984,799.501160 654.713440,798.536926 
	C660.581238,796.653748 663.670715,798.335327 665.760559,804.327942 
	C667.479431,809.257080 666.170593,812.041321 660.529846,814.285645 
	C648.472778,819.082825 636.372314,823.774658 624.231750,828.356445 
	C618.743591,830.427612 616.515076,829.469666 614.577087,824.062256 
	C608.852722,808.090698 603.244324,792.076538 597.738159,776.028442 
	C595.919189,770.726807 597.003967,768.618103 602.014404,766.735413 
	C613.538879,762.404907 625.073303,758.099609 636.644104,753.894958 
	C642.543213,751.751343 645.287292,753.281067 647.477112,759.569214 
	C649.511230,765.410034 648.223450,768.246033 642.201843,770.214844 
	C635.867798,772.285950 629.635010,774.587769 623.492798,777.167419 
	C620.916321,778.249451 619.838135,779.557129 620.999268,782.509216 
	C622.134155,785.394531 623.906860,785.247192 626.150635,784.388733 
	C630.968018,782.545654 635.779785,780.687683 640.985413,778.762695 
z"/>
<path fill="#000000" opacity="1.000000" stroke="none" 
	d="
M430.113892,224.991882 
	C433.275665,232.552856 436.695923,239.622696 439.252716,246.992142 
	C444.177307,261.186249 438.773987,274.911713 425.681152,282.403992 
	C419.704865,285.823914 413.349213,288.221497 406.324127,288.329376 
	C395.731354,288.492035 387.471191,284.109985 382.409149,274.867706 
	C376.816833,264.657318 371.734375,254.159149 366.685913,243.663132 
	C364.238403,238.574600 365.356903,236.237289 370.484070,233.717941 
	C370.932312,233.497681 371.377472,233.270065 371.833374,233.066650 
	C380.790619,229.070068 382.065186,229.574875 386.352722,238.386902 
	C390.355042,246.612747 394.059875,255.020172 398.631287,262.922089 
	C403.374329,271.120758 413.244049,271.165771 418.808868,263.562103 
	C421.442902,259.963013 421.380432,256.042664 419.771881,252.179260 
	C415.998566,243.116501 411.968536,234.160751 408.181305,225.103592 
	C405.159637,217.877182 406.036102,216.148529 413.386780,213.859558 
	C423.829041,210.607880 424.262482,210.814987 428.408936,220.963974 
	C428.912506,222.196548 429.456818,223.412460 430.113892,224.991882 
z"/>
<path fill="#000000" opacity="1.000000" stroke="none" 
	d="
M803.972534,659.085327 
	C811.645691,669.732605 810.353271,684.331482 800.970642,695.851379 
	C795.439453,702.642517 788.797302,707.596008 779.848877,708.979370 
	C773.516357,709.958313 770.565979,707.512390 770.885193,701.224854 
	C771.145325,696.100891 772.186646,692.184143 778.574219,691.114380 
	C783.983765,690.208313 788.060974,686.330994 790.179382,681.019592 
	C791.137268,678.617981 791.342896,676.022278 788.985291,674.168274 
	C786.486450,672.203003 784.388428,674.027222 782.815796,675.563232 
	C778.414124,679.862366 774.476868,684.644714 769.998962,688.856445 
	C760.893494,697.420837 748.107483,697.526794 741.000854,689.282898 
	C736.268799,683.793701 735.907837,677.241394 736.672546,670.421814 
	C737.865417,659.784668 746.796875,648.806213 756.485474,646.309326 
	C757.919006,645.939880 759.429932,645.716492 760.907898,645.701233 
	C766.077087,645.647583 770.720642,648.482544 771.234985,651.875671 
	C771.729675,655.139771 767.523499,661.544800 763.788025,662.765747 
	C760.559448,663.820984 757.425842,664.909485 755.544189,667.955261 
	C753.953430,670.530151 753.131226,673.415771 755.809875,675.631897 
	C758.421265,677.792419 760.046570,675.105713 761.613586,673.588806 
	C765.675598,669.656555 769.574097,665.556091 773.596252,661.581909 
	C778.299561,656.934631 784.154297,654.641785 790.587585,653.912598 
	C795.691895,653.333923 800.037354,655.313293 803.972534,659.085327 
z"/>
<path fill="#000000" opacity="1.000000" stroke="none" 
	d="
M379.616089,804.899292 
	C367.755035,797.694580 356.200378,790.731567 344.804840,783.517212 
	C340.127899,780.556458 339.369141,777.528259 342.253296,772.959534 
	C351.234253,758.732910 360.358185,744.593750 369.630707,730.555481 
	C372.678894,725.940613 375.709076,725.392456 380.305725,728.165283 
	C389.860291,733.928711 399.375549,739.763062 408.780670,745.766235 
	C414.200043,749.225403 414.761475,751.963379 411.744019,756.930481 
	C408.197754,762.768066 405.764893,763.474365 399.947693,760.200928 
	C395.156952,757.505005 390.414795,754.722351 385.662079,751.959229 
	C380.147705,748.753235 380.152893,748.744324 376.950867,755.081787 
	C381.221863,759.294128 386.958862,761.384766 391.847107,764.740417 
	C397.793884,768.822754 398.135040,771.779297 393.550507,777.352722 
	C391.166351,780.251160 388.593933,781.051819 385.282471,779.124939 
	C380.531860,776.360596 375.686859,773.748596 371.036407,770.826111 
	C368.447998,769.199402 366.903076,769.638062 365.351044,772.160278 
	C363.680206,774.875671 365.213165,776.025208 367.251740,777.258850 
	C373.236389,780.880310 379.186646,784.558777 385.138794,788.233643 
	C388.183197,790.113281 391.177399,791.906616 389.699921,796.461609 
	C387.632080,802.836670 385.109100,805.215942 379.616089,804.899292 
z"/>
<path fill="#000000" opacity="1.000000" stroke="none" 
	d="
M517.958130,813.000000 
	C517.903809,802.348511 517.822815,792.197144 517.804443,782.045593 
	C517.793335,775.925537 519.006226,774.694214 525.016113,774.673523 
	C534.335815,774.641479 543.656006,774.609253 552.975220,774.678284 
	C564.891174,774.766541 574.437439,782.394653 576.321350,793.213013 
	C578.328247,804.737549 572.056458,815.568298 560.919006,819.788086 
	C554.897827,822.069458 548.620667,822.635010 542.268127,822.252747 
	C538.664429,822.035889 536.847534,823.227722 537.348389,827.030212 
	C537.369934,827.193787 537.351379,827.362671 537.349915,827.529114 
	C537.226196,841.774536 539.239929,840.201721 524.039856,840.423828 
	C519.727173,840.486877 517.920959,838.500122 517.912109,834.468994 
	C517.896667,827.479370 517.939453,820.489685 517.958130,813.000000 
M546.248230,806.498962 
	C548.050964,806.183960 549.900513,806.028992 551.646301,805.519043 
	C554.787537,804.601501 556.866028,802.307190 557.401001,799.207031 
	C557.892334,796.359558 556.294800,793.908691 553.784729,792.620911 
	C549.100891,790.217834 544.036072,791.378357 539.108887,791.685974 
	C538.053955,791.751831 537.469910,792.847595 537.467773,793.918823 
	C537.460022,797.861206 536.849487,801.841064 537.990906,806.087341 
	C540.531006,806.242188 542.992554,806.392212 546.248230,806.498962 
z"/>
<path fill="#000000" opacity="1.000000" stroke="none" 
	d="
M444.803467,776.057007 
	C444.949829,775.323853 445.031555,775.001099 445.114777,774.678711 
	C447.814941,764.217834 450.849426,762.739075 461.045105,767.027283 
	C464.052917,768.292236 465.237793,770.507385 464.507599,773.848450 
	C462.167664,784.554749 459.952057,795.288208 457.674469,806.008179 
	C456.083618,813.496094 456.062439,813.548279 463.520844,815.047485 
	C468.565674,816.061584 473.654663,816.854065 478.709503,817.820984 
	C485.210388,819.064514 486.351593,820.775085 485.325287,827.483948 
	C484.247406,834.529968 482.493866,836.316711 475.975403,835.186584 
	C465.505951,833.371582 455.134766,830.990051 444.720978,828.852966 
	C443.744690,828.652588 442.760956,828.488281 441.780426,828.308594 
	C435.026642,827.070312 433.587280,824.868591 435.203278,817.756042 
	C438.332825,803.981995 441.555450,790.229187 444.803467,776.057007 
z"/>
<path fill="#000000" opacity="1.000000" stroke="none" 
	d="
M273.792236,398.999329 
	C266.944092,402.616058 260.951324,401.227264 258.160126,395.689697 
	C255.497131,390.406525 257.428925,384.447174 262.691833,381.710022 
	C267.063324,379.436462 272.750427,380.639709 275.719574,384.466339 
	C279.115234,388.842682 278.546692,393.852814 273.792236,398.999329 
z"/>
<path fill="#000000" opacity="1.000000" stroke="none" 
	d="
M817.999329,429.011841 
	C816.524780,436.304626 811.952881,440.023895 806.003479,439.171997 
	C800.801208,438.427124 797.260742,433.678680 797.750183,427.971466 
	C798.123047,423.623840 800.124573,420.439087 804.543884,419.220215 
	C808.963745,418.001190 812.713562,418.988403 815.558167,422.749207 
	C816.878174,424.494293 817.858032,426.378265 817.999329,429.011841 
z"/>
<path fill="#000000" opacity="1.000000" stroke="none" 
	d="
M797.094849,399.391052 
	C790.671570,403.275238 783.900940,400.267944 782.030151,393.858063 
	C780.566589,388.843567 782.454285,384.046448 786.616333,381.900665 
	C791.218750,379.527771 796.605469,380.520569 799.698914,384.311798 
	C802.883423,388.214569 802.845703,392.717468 799.526794,397.070862 
	C798.930908,397.852539 798.128784,398.476959 797.094849,399.391052 
z"/>
<path fill="#000000" opacity="1.000000" stroke="none" 
	d="
M267.156677,619.592834 
	C271.549713,623.812805 272.557556,627.960815 270.416077,632.258911 
	C268.235199,636.636108 264.474976,638.627441 259.800964,637.990051 
	C255.093018,637.348083 252.061569,634.296021 251.155838,629.546082 
	C249.547134,621.109558 257.405914,616.037964 267.156677,619.592834 
z"/>
<path fill="#000000" opacity="1.000000" stroke="none" 
	d="
M810.827637,516.699097 
	C816.519775,510.820404 813.766907,505.202515 810.971252,499.617340 
	C812.571533,497.299896 814.813354,497.782898 816.844116,498.202118 
	C822.921448,499.456665 827.561584,505.782684 826.964111,511.768402 
	C826.317993,518.241028 820.186890,523.831604 813.791809,523.685242 
	C811.954163,523.643188 810.012756,523.302246 808.943909,521.649719 
	C807.608582,519.585327 809.470581,518.345093 810.827637,516.699097 
z"/>
<path fill="#000000" opacity="1.000000" stroke="none" 
	d="
M244.832977,509.575989 
	C244.207138,513.123901 243.537857,516.219788 243.141220,519.350220 
	C242.723038,522.650818 241.195755,523.273315 238.394363,521.794373 
	C234.045853,519.498657 231.672913,513.710327 232.795441,507.409607 
	C233.679169,502.449219 236.948563,499.585999 241.697479,498.379913 
	C244.398346,497.693970 245.872543,498.468658 245.385483,501.680054 
	C245.013306,504.134064 245.052979,506.650482 244.832977,509.575989 
z"/>
</svg>
