<svg width="20" height="20" viewBox="0 0 20 20" fill="none" xmlns="http://www.w3.org/2000/svg">
<path d="M7.7415 1.90821L4.40816 5.24154C4.33046 5.31924 4.26883 5.41148 4.22678 5.513C4.18473 5.61452 4.16309 5.72332 4.16309 5.83321C4.16309 6.05513 4.25124 6.26795 4.40816 6.42487C4.56508 6.58179 4.77791 6.66995 4.99983 6.66995C5.22175 6.66995 5.43458 6.58179 5.5915 6.42487L7.49983 4.50821L7.49983 14.1665C7.49983 14.3876 7.58763 14.5995 7.74391 14.7558C7.90019 14.9121 8.11215 14.9999 8.33316 14.9999C8.55418 14.9999 8.76614 14.9121 8.92242 14.7558C9.0787 14.5995 9.1665 14.3876 9.1665 14.1665V2.49987C9.16567 2.33535 9.11617 2.17476 9.02423 2.03832C8.93228 1.90189 8.80201 1.79572 8.64983 1.73321C8.49807 1.66939 8.33081 1.65196 8.16915 1.6831C8.00749 1.71425 7.85868 1.79258 7.7415 1.90821ZM10.8332 5.83321V17.4999C10.834 17.6644 10.8835 17.825 10.9754 17.9614C11.0674 18.0979 11.1976 18.204 11.3498 18.2665C11.5016 18.3304 11.6688 18.3478 11.8305 18.3166C11.9922 18.2855 12.141 18.2072 12.2582 18.0915L15.5915 14.7582C15.6696 14.6807 15.7316 14.5886 15.7739 14.487C15.8162 14.3855 15.838 14.2766 15.838 14.1665C15.838 14.0565 15.8162 13.9476 15.7739 13.8461C15.7316 13.7445 15.6696 13.6523 15.5915 13.5749C15.514 13.4968 15.4219 13.4348 15.3203 13.3925C15.2188 13.3502 15.1098 13.3284 14.9998 13.3284C14.8898 13.3284 14.7809 13.3502 14.6793 13.3925C14.5778 13.4348 14.4856 13.4968 14.4082 13.5749L12.4998 15.4915V5.83321C12.4998 5.61219 12.412 5.40023 12.2558 5.24395C12.0995 5.08767 11.8875 4.99987 11.6665 4.99987C11.4455 4.99987 11.2335 5.08767 11.0772 5.24395C10.921 5.40023 10.8332 5.61219 10.8332 5.83321Z" fill="#9EA8BA"/>
</svg>
